HIERARCHY
ROOT Hips
{
	OFFSET 0.000000 89.005402 0.000000
	CHANNELS 6 Xposition Yposition Zposition Xrotation Yrotation Zrotation
	JOINT Spine
	{
		OFFSET 0.116900 10.681000 0.373400
		CHANNELS 3 Xrotation Yrotation Zrotation
		JOINT Spine1
		{
			OFFSET 0.000000 13.840401 0.053500
			CHANNELS 3 Xrotation Yrotation Zrotation
			JOINT Spine2
			{
				OFFSET 0.000000 14.712700 -0.366200
				CHANNELS 3 Xrotation Yrotation Zrotation
				JOINT Neck
				{
					OFFSET 0.000000 35.415497 -3.314200
					CHANNELS 3 Xrotation Yrotation Zrotation
					JOINT Head
					{
						OFFSET 0.000000 16.899200 1.218300
						CHANNELS 3 Xrotation Yrotation Zrotation
						JOINT HeadTop_End
						{
							OFFSET 0.000000 22.206207 2.192500
							CHANNELS 3 Xrotation Yrotation Zrotation
							End Site
							{
								OFFSET 0.000000 22.314178 0.000000
							}
						}
					}
				}
				JOINT LeftShoulder
				{
					OFFSET 12.896400 26.716293 -4.548400
					CHANNELS 3 Xrotation Yrotation Zrotation
					JOINT LeftArm
					{
						OFFSET 19.027000 -4.857010 -1.718400
						CHANNELS 3 Xrotation Yrotation Zrotation
						JOINT LeftForeArm
						{
							OFFSET 24.179897 0.000000 0.000000
							CHANNELS 3 Xrotation Yrotation Zrotation
							JOINT LeftHand
							{
								OFFSET 27.156403 0.000000 0.000000
								CHANNELS 3 Xrotation Yrotation Zrotation
								JOINT LeftHandIndex1
								{
									OFFSET 16.441200 0.000000 0.000000
									CHANNELS 3 Xrotation Yrotation Zrotation
									JOINT LeftHandIndex2
									{
										OFFSET 4.821899 0.000000 0.000000
										CHANNELS 3 Xrotation Yrotation Zrotation
										JOINT LeftHandIndex3
										{
											OFFSET 6.386497 0.000000 0.000000
											CHANNELS 3 Xrotation Yrotation Zrotation
											JOINT LeftHandIndex4
											{
												OFFSET 5.188988 0.000000 0.000000
												CHANNELS 3 Xrotation Yrotation Zrotation
												End Site
												{
													OFFSET -0.178703 5.185913 0.000177
												}
											}
										}
									}
								}
								JOINT LeftHandThumb1
								{
									OFFSET 6.534897 -5.032593 5.900300
									CHANNELS 3 Xrotation Yrotation Zrotation
									JOINT LeftHandThumb2
									{
										OFFSET 3.818176 -2.204422 2.204423
										CHANNELS 3 Xrotation Yrotation Zrotation
										JOINT LeftHandThumb3
										{
											OFFSET 3.252098 -1.877594 1.877601
											CHANNELS 3 Xrotation Yrotation Zrotation
											JOINT LeftHandThumb4
											{
												OFFSET 5.251778 -3.032120 3.032117
												CHANNELS 3 Xrotation Yrotation Zrotation
												End Site
												{
													OFFSET 0.000023 6.780014 0.000000
												}
											}
										}
									}
								}
							}
						}
					}
				}
				JOINT RightShoulder
				{
					OFFSET -12.896300 26.716293 -4.548400
					CHANNELS 3 Xrotation Yrotation Zrotation
					JOINT RightArm
					{
						OFFSET -19.027000 -4.857010 -1.718400
						CHANNELS 3 Xrotation Yrotation Zrotation
						JOINT RightForeArm
						{
							OFFSET -24.179897 0.000000 0.000000
							CHANNELS 3 Xrotation Yrotation Zrotation
							JOINT RightHand
							{
								OFFSET -27.156403 0.000000 0.000000
								CHANNELS 3 Xrotation Yrotation Zrotation
								JOINT RightHandThumb1
								{
									OFFSET -6.591202 -4.852203 5.988100
									CHANNELS 3 Xrotation Yrotation Zrotation
									JOINT RightHandThumb2
									{
										OFFSET -3.818176 -2.204422 2.204423
										CHANNELS 3 Xrotation Yrotation Zrotation
										JOINT RightHandThumb3
										{
											OFFSET -3.252098 -1.877594 1.877601
											CHANNELS 3 Xrotation Yrotation Zrotation
											JOINT RightHandThumb4
											{
												OFFSET -5.251778 -3.032120 3.032117
												CHANNELS 3 Xrotation Yrotation Zrotation
												End Site
												{
													OFFSET -0.000023 6.780014 0.000000
												}
											}
										}
									}
								}
								JOINT RightHandIndex1
								{
									OFFSET -16.029404 0.000000 0.000000
									CHANNELS 3 Xrotation Yrotation Zrotation
									JOINT RightHandIndex2
									{
										OFFSET -5.213303 0.000000 0.000000
										CHANNELS 3 Xrotation Yrotation Zrotation
										JOINT RightHandIndex3
										{
											OFFSET -6.386528 0.000000 0.000000
											CHANNELS 3 Xrotation Yrotation Zrotation
											JOINT RightHandIndex4
											{
												OFFSET -5.189026 0.000000 0.000000
												CHANNELS 3 Xrotation Yrotation Zrotation
												End Site
												{
													OFFSET 0.236702 5.183624 0.001972
												}
											}
										}
									}
								}
							}
						}
					}
				}
			}
		}
	}
	JOINT LeftUpLeg
	{
		OFFSET 14.073000 -7.904099 -1.463000
		CHANNELS 3 Xrotation Yrotation Zrotation
		JOINT LeftLeg
		{
			OFFSET -0.109806 -34.073280 4.093200
			CHANNELS 3 Xrotation Yrotation Zrotation
			JOINT LeftFoot
			{
				OFFSET 0.109806 -29.899420 -6.319000
				CHANNELS 3 Xrotation Yrotation Zrotation
				JOINT LeftToeBase
				{
					OFFSET 1.551100 -14.988700 20.535801
					CHANNELS 3 Xrotation Yrotation Zrotation
					JOINT LeftToe_End
					{
						OFFSET 0.221200 0.570800 13.248301
						CHANNELS 3 Xrotation Yrotation Zrotation
						End Site
						{
							OFFSET 0.000000 13.262435 0.000000
						}
					}
				}
			}
		}
	}
	JOINT RightUpLeg
	{
		OFFSET -13.839300 -7.904099 -1.463000
		CHANNELS 3 Xrotation Yrotation Zrotation
		JOINT RightLeg
		{
			OFFSET 0.109694 -34.073219 4.093300
			CHANNELS 3 Xrotation Yrotation Zrotation
			JOINT RightFoot
			{
				OFFSET -0.109694 -29.899384 -6.319200
				CHANNELS 3 Xrotation Yrotation Zrotation
				JOINT RightToeBase
				{
					OFFSET -1.551100 -14.988700 20.535801
					CHANNELS 3 Xrotation Yrotation Zrotation
					JOINT RightToe_End
					{
						OFFSET -0.221200 0.570900 13.248299
						CHANNELS 3 Xrotation Yrotation Zrotation
						End Site
						{
							OFFSET 0.000000 13.262440 0.000000
						}
					}
				}
			}
		}
	}
}
MOTION
Frames: 5
Frame Time: 0.033333
-0.603827 32.062363 57.997993 11.902051 11.807806 -4.393030 2.808267 -2.719526 2.279777 5.487456 -2.812495 2.058963 5.515633 -2.757058 2.049888 14.539734 1.139408 -2.049582 12.007461 7.158233 -5.911636 0.000003 0.000000 0.000000 -0.145438 8.032231 -10.157128 0.096751 -0.000514 -50.310733 -0.000001 -46.031261 0.000010 -27.356641 -1.471243 -6.725598 0.212491 1.700697 -14.243022 0.463340 2.487526 -21.099113 0.116741 1.265141 -10.544546 -0.000001 -0.000001 0.000001 5.020641 21.939558 6.970736 -10.935060 13.162634 4.029961 -7.803185 4.543114 3.203984 0.000002 0.000000 -0.000003 2.781659 10.447212 10.243061 -1.817716 -14.624289 50.370787 -0.000003 43.983731 0.000007 4.824836 4.816610 17.658407 -5.870681 -16.756718 -8.109242 -3.877147 -15.773521 -0.240542 -5.436223 -3.481956 -1.534680 -0.000001 -0.000000 0.000000 0.727255 -3.100835 26.392717 0.105172 -1.207289 9.958090 0.026355 -0.605928 4.978495 0.000001 -0.000001 -0.000000 -15.175676 -4.047807 53.068343 104.843725 15.287188 7.788425 9.132382 0.157919 -2.481872 39.195358 0.620036 2.364770 -0.000001 0.000000 -0.000001 -14.649017 1.884744 -51.669466 110.872815 -10.161828 -4.972824 3.874967 -1.005842 8.281275 46.491694 -1.199135 -1.479814 0.000000 0.000000 0.000001 
0.100714 32.235428 60.655823 13.856202 11.689246 -4.556151 2.316876 -2.857122 2.522179 4.466003 -2.838549 2.265807 4.496412 -2.791799 2.256112 13.965814 1.285783 -1.983548 9.347104 7.828317 -5.163616 0.000001 -0.000000 0.000000 -0.149176 7.961768 -9.910547 1.742063 -0.009269 -47.064696 0.000001 -45.850640 0.000001 -29.965259 -1.464402 -9.280191 0.212494 1.700699 -14.243011 0.463339 2.487523 -21.099113 0.116740 1.265141 -10.544542 -0.000001 -0.000000 -0.000003 5.020644 21.939556 6.970759 -10.935061 13.162635 4.029961 -7.803183 4.543114 3.203982 -0.000003 -0.000002 0.000000 2.721676 10.266311 10.118854 0.635727 -13.463924 46.313955 -0.000004 47.744187 0.000007 8.480277 6.642294 24.778840 -5.870687 -16.756715 -8.109230 -3.877137 -15.773526 -0.240541 -5.436220 -3.481954 -1.534667 0.000001 0.000000 0.000001 0.727249 -3.100831 26.392718 0.105170 -1.207290 9.958088 0.026352 -0.605927 4.978495 0.000007 0.000001 -0.000001 -14.861214 -0.093692 52.324358 100.663717 15.903552 8.353468 8.593058 0.162781 -2.410727 37.202763 0.734484 3.523670 -0.000000 0.000001 0.000001 -14.416970 -2.115589 -51.591550 107.049603 -11.202596 -5.245696 3.628043 -0.973036 8.123713 46.148907 -1.138628 -1.197006 0.000001 0.000000 0.000000 
0.781594 32.078575 63.284065 15.919168 11.785135 -4.777904 1.862744 -3.002072 2.735910 3.517804 -2.915171 2.454717 3.550841 -2.878252 2.443935 13.276063 1.397209 -1.864275 6.833100 8.400975 -4.709852 0.000001 -0.000001 0.000001 -0.154159 7.874710 -9.600151 2.444632 -0.897542 -43.213883 0.000001 -46.803058 0.000019 -32.627947 -1.156904 -13.755999 0.212492 1.700700 -14.243017 0.463338 2.487524 -21.099110 0.116742 1.265138 -10.544544 0.000000 0.000001 0.000002 5.020639 21.939548 6.970764 -10.935065 13.162635 4.029959 -7.803185 4.543114 3.203982 -0.000002 0.000001 -0.000001 2.655439 10.055396 9.986201 2.168482 -11.988713 41.612193 -0.000005 51.783414 0.000009 10.008745 7.677682 28.617955 -5.870681 -16.756713 -8.109236 -3.877149 -15.773523 -0.240554 -5.436230 -3.481953 -1.534666 -0.000000 0.000001 0.000000 0.727257 -3.100841 26.392710 0.105176 -1.207291 9.958089 0.026355 -0.605927 4.978493 -0.000001 -0.000001 -0.000001 -14.538273 3.287594 51.930359 96.654403 16.151017 8.736571 8.193182 0.160983 -2.295098 35.011519 0.876148 4.748508 0.000001 0.000000 0.000000 -14.005652 -6.064924 -51.916357 103.261108 -11.617914 -5.248712 3.459792 -0.931271 7.892874 45.768941 -1.073511 -0.903574 -0.000002 0.000000 0.000000 
1.461726 31.619377 65.856064 18.358913 11.988440 -5.174994 1.414888 -3.143183 2.978095 2.582023 -3.010303 2.706629 2.618092 -2.984712 2.694366 12.431438 1.499644 -1.780642 4.404627 8.931832 -4.457163 -0.000003 -0.000000 0.000000 -0.156622 7.832127 -9.447635 1.875486 -2.408898 -39.134218 -0.000003 -48.712178 0.000003 -35.329796 -0.593859 -18.953159 0.212488 1.700705 -14.243033 0.463339 2.487528 -21.099108 0.116740 1.265140 -10.544543 0.000001 -0.000001 -0.000004 5.020644 21.939553 6.970750 -10.935061 13.162634 4.029963 -7.803180 4.543113 3.203982 0.000001 0.000000 -0.000001 2.596389 9.837726 9.887892 2.525970 -10.222455 36.103444 -0.000021 55.525330 0.000025 11.607353 8.127432 28.299244 -5.870678 -16.756708 -8.109241 -3.877146 -15.773536 -0.240564 -5.436217 -3.481948 -1.534654 -0.000002 -0.000001 -0.000001 0.727253 -3.100831 26.392712 0.105175 -1.207288 9.958087 0.026355 -0.605928 4.978491 0.000002 -0.000004 -0.000001 -14.534219 6.120177 51.876410 92.976879 15.904548 8.871996 7.891152 0.150376 -2.106827 31.627594 1.194075 6.863025 -0.000001 0.000000 -0.000000 -13.718912 -9.836724 -52.296617 99.631546 -11.491595 -4.953668 3.322103 -0.886735 7.615044 45.437226 -1.013923 -0.708392 -0.000000 0.000000 0.000001 
2.153212 30.896545 68.387558 21.498799 12.382896 -5.815734 0.928095 -3.303425 3.293721 1.567865 -3.157662 3.050100 1.608448 -3.146075 3.035751 11.417150 1.610697 -1.767560 1.845391 9.452189 -4.245224 -0.000001 -0.000001 -0.000001 -0.160942 7.754216 -9.171681 -0.282305 -4.456731 -35.437456 0.000004 -51.503711 -0.000005 -37.521917 0.807026 -23.865087 0.212502 1.700699 -14.243016 0.463339 2.487523 -21.099115 0.116742 1.265140 -10.544547 0.000001 -0.000001 0.000001 5.020644 21.939555 6.970723 -10.935061 13.162634 4.029961 -7.803183 4.543114 3.203982 0.000002 -0.000000 -0.000004 2.522044 9.537520 9.779660 1.466329 -7.962837 30.059751 -0.000008 58.257074 0.000006 14.332187 8.540258 24.720365 -5.870688 -16.756734 -8.109242 -3.877145 -15.773514 -0.240544 -5.436215 -3.481945 -1.534672 0.000001 0.000001 0.000001 0.727254 -3.100834 26.392717 0.105171 -1.207289 9.958086 0.026355 -0.605929 4.978497 0.000002 -0.000001 -0.000000 -15.230668 8.224277 52.008407 89.829746 15.078058 8.699848 7.665147 0.129238 -1.836775 26.228056 2.007058 10.702014 -0.000002 -0.000001 0.000001 -13.777794 -13.567117 -52.693475 96.149276 -10.782902 -4.234921 3.236298 -0.841647 7.310634 45.220053 -0.969781 -0.646116 -0.000002 0.000000 -0.000000 
